<?xml version="1.0" encoding="UTF-8"?>
<svg xmlns="http://www.w3.org/2000/svg" viewBox="0 0 533.5 544.3">
  <path fill="#4285F4" d="M533.5 278.4c0-17.7-1.6-35-4.7-51.6H272v97.9h146.9c-6.3 34-25.2 62.8-53.7 82v68h86.7c50.7-46.7 80.6-115.7 80.6-196.3z"/>
  <path fill="#34A853" d="M272 544.3c72.6 0 133.6-24.1 178.1-65.6l-86.7-68c-24.1 16.2-55 25.8-91.4 25.8-70 0-129.3-47.2-150.5-110.7H33.6v69.6C77.8 486.6 170.2 544.3 272 544.3z"/>
  <path fill="#FBBC05" d="M121.5 326.2c-10.9-32.9-10.9-68.8 0-101.7V154.9H33.6c-39.3 77.4-39.3 167.3 0 244.7l87.9-73.4z"/>
  <path fill="#EA4335" d="M272 109.2c39.5 0 75 13.6 103 40.4l77.4-77.4C405.6 24.9 344.6 0 272 0 170.2 0 77.8 57.7 33.6 154.9l87.9 69.6C142.7 156.4 202 109.2 272 109.2z"/>
</svg>
